<?xml version="1.0" encoding="utf-8"?>
<!-- Generator: Adobe Illustrator 15.0.2, SVG Export Plug-In . SVG Version: 6.00 Build 0)  -->
<!DOCTYPE svg PUBLIC "-//W3C//DTD SVG 1.1//EN" "http://www.w3.org/Graphics/SVG/1.1/DTD/svg11.dtd">
<svg version="1.1" xmlns="http://www.w3.org/2000/svg" xmlns:xlink="http://www.w3.org/1999/xlink" x="0px" y="0px" width="74px"
	 height="68px" viewBox="0 0 74 68" enable-background="new 0 0 74 68" xml:space="preserve">
<g id="Layer_5">
</g>
<g id="bg">
	<g>
		<g>
			<path fill="#FFFFFF" d="M14.264,57.41C7.897,52.846,3.195,46.409,1.144,39v-3h71.713v3c-2.051,7.409-6.752,13.846-13.121,18.41"
				/>
			<path fill="#FFFFFF" d="M59.735,57.41C53.464,61.908,45.573,64.59,37,64.59s-16.463-2.682-22.736-7.18"/>
		</g>
		<path fill="#FFFFFF" d="M14.264,57.41"/>
		<path fill="#FFFFFF" d="M59.735,57.41"/>
	</g>
</g>
<g id="Layer_1">
	<g>
		<g>
			<path fill="#0D0D0D" d="M13.972,58.316C7.534,53.701,2.855,47.208,0.765,40H-443v-1H1.523l0.102,0.366
				c1.976,7.135,6.567,13.576,12.93,18.138L13.972,58.316z"/>
		</g>
		<g>
			<path fill="#0D0D0D" d="M60.026,58.316l-0.582-0.812c6.362-4.561,10.954-11.002,12.931-18.138L72.476,39H517v1H73.234
				C71.144,47.208,66.465,53.701,60.026,58.316z"/>
		</g>
		<g>
			<path fill="#0D0D0D" d="M37,65.59c-8.429,0-16.392-2.515-23.028-7.273l0.583-0.812C21.02,62.14,28.781,64.59,37,64.59
				c8.219,0,15.98-2.45,22.445-7.086l0.582,0.812C53.392,63.075,45.429,65.59,37,65.59z"/>
		</g>
		<path fill="none" stroke="#0D0D0D" stroke-miterlimit="10" d="M14.263,58.41"/>
		<path fill="none" stroke="#0D0D0D" stroke-miterlimit="10" d="M59.735,58.41"/>
		<path fill="none" stroke="#0D0D0D" stroke-miterlimit="10" d="M19.262,61.41"/>
		<path fill="none" stroke="#0D0D0D" stroke-miterlimit="10" d="M-443,61.41"/>
		<path fill="none" stroke="#0D0D0D" stroke-miterlimit="10" d="M517,61.41"/>
		<g>
			<path fill="none" stroke="#0D0D0D" stroke-miterlimit="10" d="M55.083,61.41"/>
		</g>
	</g>
</g>
<g id="Layer_3">
</g>
<g id="Layer_4">
	<g>
		<path fill="none" d="M37.185,16.779c-0.29-0.283-1.089-0.978-2.122-1.158c-1.697-0.295-3,2.02-3,2.02s-1.359-2.208-3.097-2.643
			c-2.012-0.503-3.861,0.117-4.493,0.548c-0.774,0.528-1.208,1.529-1.208,1.529s1.378,0.094,2.133,0.509
			c0.756,0.415,2.059,2.058,2.059,2.058s-1.114,0.396-2.641,0.4c-0.657,0.001-2.399-0.457-2.399-0.457s0,1.718,0.529,3.228
			c0.618,1.768,1.113,2.586,1.113,2.586s1.322-0.604,2.134-1.284c0.863-0.722,1.415-1.416,1.415-1.416s0.416,0.227,1.17,0.227
			c1.003,0,0.859,0.084,0.859,0.084c-0.871,1.543-0.912,2.862-1.062,3.339c-0.474,1.506-0.474,1.506-0.474,1.506
			s2.64-2.298,5.83-2.041c1.869,0.151,3.635-0.955,3.814-2.303c0.188-1.434-0.057-2.492-0.963-3.133
			c-0.906-0.643-1.774-0.85-1.774-0.85s0.123-1.009,1.001-1.888c0.41-0.41,0.937-0.619,1.175-0.697
			c0.08-0.026,0.127-0.038,0.127-0.038S37.261,16.853,37.185,16.779z"/>
		<path fill="none" d="M47.471,25.944c-0.709,0-1.415-0.013-2.123-0.041c-1.592-0.062-3.183-0.198-4.771-0.397l-2.869,14.023
			c2.122,0.334,4.282,0.555,6.481,0.677c0.614-0.678,1.143-1.4,1.542-2.173c0.039-0.075,0.091-0.144,0.131-0.218
			c1.409-3.73,2.402-7.783,2.865-11.899C48.309,25.926,47.89,25.944,47.471,25.944z"/>
		<path fill="none" d="M36.627,44.812c2.543-0.845,4.809-2.067,6.546-3.601c-1.922-0.135-3.814-0.346-5.679-0.641L36.627,44.812z"/>
		<path fill="none" d="M50.086,25.879c-0.096,0.004-0.191,0.008-0.287,0.012c-0.004,0.039-0.007,0.076-0.011,0.114
			c-0.342,3.054-0.974,6.075-1.843,8.965c1.861-1.973,4.333-3.523,7.157-4.435C52.749,29.929,50.859,28.162,50.086,25.879z"/>
		<path fill="none" d="M27.836,38.229c-0.101,0.952-0.386,1.85-0.818,2.658c0.049,1.755,0.189,3.501,0.43,5.229
			c0.271,0.008,0.541,0.032,0.812,0.032c2.468,0,4.926-0.348,7.211-0.984l0.977-4.775C33.521,39.873,30.655,39.16,27.836,38.229z"/>
		<path fill="none" d="M20.561,44.77c-0.176,0-0.35-0.014-0.523-0.026c0.014,0.005,0.029,0.012,0.043,0.017
			c1.988,0.734,4.126,1.156,6.293,1.313c-0.169-1.247-0.282-2.504-0.353-3.767C24.68,43.813,22.732,44.77,20.561,44.77z"/>
		<path fill="none" d="M34.763,15.064c0.13,0,0.262,0.011,0.391,0.034c0.898,0.156,1.634,0.646,2.081,1.015
			c0.078-0.506,0.228-0.926,0.413-1.229c0.001-0.001,0.002-0.003,0.003-0.004c0.011-0.026,0.014-0.038,0.026-0.069
			c0.162-0.394,1.138-1.585,3.005-1.511c0.404,0.017,0.73,0.328,0.73,0.731c0,0.403-0.354,0.923-1.223,0.837
			c-0.894-0.088-1.521,0.002-1.936,0.104c-0.053,0.061-0.108,0.109-0.156,0.188c-0.152,0.251-0.278,0.618-0.342,1.069
			c0.309-0.37,0.948-0.735,2.18-0.685c0.402,0.017,0.729,0.328,0.729,0.73c0,0.404-0.35,0.798-1.224,0.837
			c-0.594,0.027-0.999,0.086-1.295,0.133l-0.405,0.101c0.042,0.436,0.135,0.909,0.312,1.419c0.048,0.139-0.025,0.29-0.163,0.338
			c-0.029,0.01-0.06,0.015-0.087,0.015c-0.111,0-0.214-0.069-0.252-0.179c-0.178-0.514-0.279-0.995-0.331-1.444
			c-0.22,0.085-0.566,0.25-0.838,0.522c-0.407,0.407-0.624,0.85-0.736,1.163c0.371,0.141,0.9,0.383,1.441,0.766
			c1.022,0.725,1.409,1.914,1.182,3.636c-0.021,0.162-0.069,0.319-0.125,0.473c0.521,0.089,1.055,0.169,1.593,0.246l2.415-11.809
			c-1.921-0.267-3.83-0.682-5.717-1.225c-1.076,1.271-2.08,2.674-3.007,4.193C33.827,15.226,34.273,15.064,34.763,15.064z"/>
		<path fill="none" d="M48.831,24.828c0.392-4.403,0.127-8.489-0.731-11.966c-0.156,0.002-0.312,0.016-0.469,0.016
			c-0.863,0-1.727-0.028-2.589-0.085c-0.609-0.04-1.219-0.114-1.827-0.182l-2.42,11.828C43.316,24.748,46.004,24.896,48.831,24.828z
			"/>
		<path fill="none" d="M50.071,21.359c0.722-2.2,2.479-3.952,4.745-4.639c-0.629-1.511-1.313-2.915-2.035-4.187
			c-1.192,0.156-2.389,0.244-3.586,0.291c0.051,0.214,0.106,0.42,0.153,0.639C49.861,15.875,50.101,18.551,50.071,21.359z"/>
		<path fill="none" d="M37.211,10.391c1.55,0.423,3.278,0.792,5.158,1.048l1.253-6.126C41.317,6.545,39.162,8.262,37.211,10.391z"/>
		<path fill="none" d="M13.242,37.451c0-1.06,0.232-2.076,0.65-2.999c0.087-0.846,0.213-1.688,0.356-2.528
			c-1.888-1.136-3.771-2.387-5.655-3.74c0.267,6.069,2.492,10.062,5.194,12.682c-0.019-0.267-0.041-0.533-0.053-0.8
			C13.421,39.253,13.242,38.373,13.242,37.451z"/>
		<path fill="none" d="M52.186,11.531c-2.019-3.266-4.266-5.506-6.343-6.259c1.335,1.758,2.371,3.932,3.088,6.504
			C49.988,11.742,51.074,11.662,52.186,11.531z"/>
		<path fill="none" d="M42.04,4.994c-3.918,0.337-7.573,1.423-10.875,3.219c1.08,0.489,2.29,0.981,3.626,1.438
			c0.409,0.14,0.842,0.277,1.287,0.413C37.898,8.009,39.898,6.299,42.04,4.994z"/>
		<path fill="none" d="M23.597,14.262c-1.047,1.178-2.002,2.456-2.878,3.8c0.682,0.362,1.413,0.729,2.175,1.095
			c0.661,0.162,1.558,0.353,1.919,0.353c0.672,0,1.261-0.084,1.695-0.171c-0.47-0.533-1.029-1.104-1.365-1.288
			c-0.536-0.295-1.562-0.422-1.913-0.445l-0.751-0.053l0.3-0.689c0.02-0.046,0.505-1.148,1.396-1.757
			c0.604-0.412,1.842-0.828,3.247-0.828c0.571,0,1.135,0.069,1.675,0.204c1.08,0.27,2,1.111,2.616,1.816
			c1.091-1.967,2.308-3.762,3.63-5.37c-0.31-0.098-0.624-0.18-0.933-0.286c-1.656-0.568-3.116-1.184-4.375-1.779
			C27.682,10.296,25.522,12.096,23.597,14.262z"/>
		<path fill="none" d="M43.427,11.572c1.392,0.152,2.858,0.236,4.391,0.23c-0.731-2.504-1.787-4.652-3.146-6.312L43.427,11.572z"/>
		<path fill="none" d="M37.53,25.034c-0.745,0.792-1.952,1.326-3.255,1.326c-0.129,0-0.259-0.005-0.387-0.015
			c-0.152-0.012-0.306-0.019-0.46-0.019c-2.73,0-4.956,1.911-4.978,1.93l-0.177,0.154c-0.464,2.005-0.806,4.042-1.017,6.097
			c0.354,0.803,0.563,1.682,0.606,2.604c2.879,0.968,5.806,1.709,8.799,2.234l2.861-13.986
			C38.856,25.263,38.192,25.154,37.53,25.034z"/>
		<path fill="none" d="M16.019,31.725c0.872-0.696,1.906-1.204,3.051-1.441c0.487-0.101,0.989-0.152,1.491-0.152
			c2.362,0,4.459,1.129,5.798,2.871c0.426-3.264,1.168-6.477,2.218-9.558c-0.327-0.017-0.608-0.062-0.807-0.119
			c-0.253,0.282-0.683,0.733-1.238,1.198c-0.856,0.717-2.197,1.333-2.253,1.359l-0.431,0.197l-0.245-0.406
			c-0.022-0.035-0.531-0.886-1.161-2.686c-0.435-1.245-0.53-2.585-0.551-3.137c-0.604-0.298-1.191-0.596-1.744-0.891
			c-2.277,3.744-3.887,8.005-4.725,12.421C15.621,31.5,15.82,31.61,16.019,31.725z"/>
		<path fill="none" d="M39.657,4.209c-1.061-0.09-2.116-0.147-3.156-0.147c-3.529,0-6.946,0.533-10.158,1.543
			c0.759,0.494,1.991,1.24,3.634,2.048C32.938,5.934,36.186,4.774,39.657,4.209z"/>
		<path fill="none" d="M64.084,23.579c0,2.544-1.331,4.779-3.33,6.058c2.994,0.002,5.779,0.802,8.056,2.321
			c-0.156-3.393-0.919-6.537-2.148-9.396c-0.859,0.305-1.722,0.588-2.586,0.853C64.077,23.469,64.084,23.523,64.084,23.579z"/>
		<path fill="none" d="M14.451,30.799c0.879-4.388,2.504-8.614,4.766-12.347c-3.38-1.881-5.63-3.555-6.485-4.229
			c-1.147,1.258-2.173,2.603-3.076,4.012c-0.751,3.241-1.081,6.099-1.089,8.625C10.528,28.294,12.487,29.603,14.451,30.799z"/>
		<path fill="none" d="M57.065,10.638c-2.357-1.752-4.928-3.168-7.581-4.214c1.333,1.246,2.642,2.92,3.857,4.955
			C54.556,11.199,55.799,10.953,57.065,10.638z"/>
		<path fill="none" d="M55.864,16.469c0.34-0.049,0.684-0.083,1.029-0.083c3.543,0,6.487,2.578,7.076,5.955
			c0.744-0.23,1.496-0.489,2.251-0.756c-1.914-4.007-4.753-7.416-8.094-10.123c-1.398,0.379-2.809,0.671-4.226,0.897
			C54.597,13.616,55.255,14.99,55.864,16.469z"/>
		<path fill="none" d="M22.802,13.556c1.841-2.071,3.888-3.819,6.106-5.244c-2-1.023-3.316-1.911-3.835-2.28
			c-4.205,1.517-8.021,3.878-11.207,7.007c-0.136,0.134-0.265,0.274-0.398,0.411c0.877,0.685,3.061,2.294,6.315,4.101
			C20.7,16.137,21.703,14.793,22.802,13.556z"/>
		<path fill="none" d="M53.356,46.689c3.356-14.985,10.583-15.609,14.26-14.234c-2.891-1.68-6.578-2.195-10.393-1.389
			c-4.601,0.973-8.463,3.668-10.408,7.225c-1.753,4.609-4.128,8.74-6.939,11.91c-1.812,2.043-3.79,3.686-5.879,4.882
			c-2.237,1.282-4.613,2.058-7.061,2.306c-0.584,0.059-1.171,0.088-1.761,0.088c-3.624,0-7.377-1.115-11.214-3.318
			c1.43,1.21,3.045,2.277,4.814,3.224C35.566,63.888,50.397,59.897,53.356,46.689z"/>
		<path d="M36.661,39.346c0.349,0.062,0.697,0.128,1.048,0.184l2.869-14.023c-0.353-0.044-0.704-0.095-1.056-0.146L36.661,39.346z"
			/>
		<path d="M40.795,24.438l2.42-11.828c-0.354-0.04-0.708-0.07-1.062-0.12L39.738,24.3C40.087,24.35,40.44,24.395,40.795,24.438z"/>
		<path d="M44.237,5.001c-0.206,0.102-0.412,0.202-0.615,0.312l-1.253,6.126c0.349,0.047,0.698,0.094,1.058,0.133l1.244-6.082
			C44.531,5.319,44.384,5.162,44.237,5.001z"/>
		<path d="M36.447,40.389l-0.977,4.775c0.391-0.109,0.777-0.225,1.157-0.352l0.868-4.241C37.144,40.516,36.796,40.45,36.447,40.389z
			"/>
		<path d="M32.054,16.712c0.317-0.408,0.791-0.91,1.375-1.253c0.927-1.519,1.931-2.922,3.007-4.193
			c-0.367-0.105-0.731-0.221-1.096-0.336c-1.322,1.607-2.539,3.403-3.63,5.37C31.837,16.444,31.955,16.585,32.054,16.712z"/>
		<path d="M43.622,5.312c0.203-0.109,0.409-0.21,0.615-0.312c-0.035-0.039-0.069-0.081-0.105-0.119
			c-0.706,0.013-1.402,0.053-2.092,0.112c-2.142,1.305-4.142,3.015-5.962,5.07c0.366,0.111,0.744,0.22,1.133,0.326
			C39.162,8.262,41.317,6.545,43.622,5.312z"/>
		<path d="M27.027,29.495l1.042-3.305c0.027-0.085,0.056-0.247,0.089-0.434c0.095-0.532,0.243-1.352,0.66-2.296
			c-0.013,0-0.026,0-0.041,0c-0.074,0-0.13-0.011-0.2-0.014c-1.05,3.081-1.792,6.293-2.218,9.558
			c0.355,0.462,0.659,0.965,0.897,1.505c0.21-2.056,0.552-4.092,1.017-6.097L27.027,29.495z"/>
		<path d="M26.021,42.307c0.071,1.263,0.184,2.52,0.353,3.767c0.357,0.025,0.716,0.031,1.074,0.043
			c-0.241-1.728-0.381-3.474-0.43-5.229C26.744,41.401,26.406,41.875,26.021,42.307z"/>
		<path d="M22.802,13.556c-1.1,1.237-2.102,2.581-3.019,3.996c0.305,0.169,0.612,0.339,0.935,0.511
			c0.876-1.344,1.832-2.623,2.878-3.8c1.926-2.167,4.085-3.966,6.437-5.398c-0.395-0.187-0.772-0.371-1.125-0.552
			C26.69,9.737,24.644,11.485,22.802,13.556z"/>
		<path d="M13.787,40.866c0.22,0.213,0.443,0.415,0.669,0.61c-0.291-0.438-0.53-0.912-0.722-1.41
			C13.746,40.333,13.768,40.6,13.787,40.866z"/>
		<path d="M31.166,8.213c3.301-1.796,6.957-2.882,10.875-3.219c0.689-0.06,1.386-0.1,2.092-0.112
			c-0.052-0.055-0.099-0.116-0.15-0.169l0.381-0.37V4.293L44.357,3.81c-1.606,0.017-3.175,0.151-4.7,0.399
			c-3.472,0.564-6.719,1.724-9.68,3.444C30.352,7.838,30.75,8.025,31.166,8.213z"/>
		<path d="M20.147,18.962c-0.322-0.172-0.626-0.341-0.931-0.51c-2.262,3.733-3.887,7.959-4.766,12.347
			c0.324,0.197,0.648,0.393,0.972,0.584C16.26,26.967,17.871,22.706,20.147,18.962z"/>
		<path d="M13.892,34.452c0.328-0.725,0.772-1.389,1.309-1.97c-0.318-0.185-0.636-0.367-0.953-0.558
			C14.105,32.764,13.979,33.606,13.892,34.452z"/>
		<path d="M49.799,25.892c-0.357,0.015-0.714,0.016-1.071,0.024c-0.463,4.116-1.456,8.169-2.865,11.899
			c0.556-1.022,1.26-1.973,2.083-2.845c0.869-2.89,1.501-5.911,1.843-8.965C49.792,25.968,49.795,25.93,49.799,25.892z"/>
		<path d="M48.831,24.828c0.328-0.008,0.65-0.007,0.983-0.021c-0.069-0.4-0.113-0.809-0.113-1.228c0-0.771,0.139-1.515,0.37-2.22
			c0.029-2.808-0.21-5.484-0.723-7.896c-0.047-0.219-0.103-0.425-0.153-0.639c-0.365,0.015-0.73,0.033-1.096,0.038
			C48.958,16.339,49.223,20.424,48.831,24.828z"/>
		<path d="M44.132,4.882c0.036,0.039,0.07,0.08,0.105,0.119c0.146,0.161,0.294,0.318,0.434,0.489
			c1.359,1.661,2.415,3.809,3.146,6.312c0.366-0.001,0.74-0.014,1.113-0.026c-0.717-2.572-1.753-4.746-3.088-6.504
			c-0.505-0.183-1.001-0.287-1.48-0.287V4.343l-0.381,0.37C44.033,4.766,44.08,4.827,44.132,4.882z"/>
		<path d="M55.429,16.536c0.144-0.03,0.29-0.046,0.436-0.067c-0.609-1.479-1.268-2.853-1.963-4.11
			c-0.373,0.06-0.746,0.125-1.12,0.174c0.722,1.271,1.406,2.675,2.035,4.187C55.021,16.658,55.217,16.58,55.429,16.536z"/>
		<path d="M44.362,4.293v0.049v0.642c0.479,0,0.976,0.104,1.48,0.287c2.077,0.753,4.324,2.994,6.343,6.259
			c0.383-0.044,0.768-0.095,1.156-0.152c-1.216-2.035-2.524-3.708-3.857-4.955c-1.179-1.102-2.375-1.871-3.543-2.242
			c-0.245-0.078-0.488-0.136-0.73-0.179c-0.285-0.05-0.568-0.083-0.849-0.083V4.293z"/>
		<path d="M61.606,13.156c-4.214-4.285-9.855-7.49-15.665-8.974c1.168,0.371,2.364,1.14,3.543,2.242
			c2.653,1.045,5.224,2.461,7.581,4.214c0.354-0.088,0.706-0.17,1.064-0.27l0.285,1.024c-0.096,0.027-0.192,0.044-0.288,0.07
			c3.341,2.707,6.18,6.116,8.094,10.123c0.195-0.069,0.388-0.125,0.584-0.196l0.363,0.999C67,22.449,66.83,22.5,66.661,22.561
			c1.229,2.859,1.992,6.004,2.148,9.396c-2.276-1.519-5.062-2.319-8.056-2.321c-1.117,0.714-2.439,1.134-3.86,1.134
			c-0.619,0-1.217-0.087-1.791-0.235c-2.824,0.912-5.296,2.462-7.157,4.435c-0.823,0.872-1.527,1.822-2.083,2.845
			c-0.04,0.074-0.092,0.143-0.131,0.218c-0.399,0.772-0.928,1.495-1.542,2.173c0.348,0.02,0.691,0.048,1.04,0.062l-0.015,0.365
			l-0.027,0.697c-0.194-0.008-0.385-0.024-0.578-0.034c-0.48-0.023-0.959-0.051-1.436-0.084c-1.737,1.533-4.003,2.756-6.546,3.601
			c-0.379,0.127-0.766,0.242-1.157,0.352c-2.285,0.637-4.743,0.984-7.211,0.984c-0.271,0-0.541-0.024-0.812-0.032
			c-0.358-0.012-0.717-0.018-1.074-0.043c-2.167-0.157-4.305-0.579-6.293-1.313c-0.014-0.005-0.029-0.012-0.043-0.017
			c-2.33-0.166-4.362-1.422-5.582-3.267c-0.226-0.195-0.449-0.397-0.669-0.61c-2.702-2.619-4.927-6.612-5.194-12.682
			c-0.285-0.205-0.57-0.399-0.855-0.609l0.63-0.857c0.066,0.049,0.133,0.093,0.199,0.142c0.008-2.526,0.338-5.384,1.089-8.625
			c0.903-1.41,1.929-2.754,3.076-4.012c-0.247-0.194-0.392-0.314-0.4-0.321l0.689-0.809c0.009,0.008,0.171,0.142,0.447,0.358
			c0.133-0.136,0.262-0.277,0.398-0.411c3.186-3.129,7.002-5.49,11.207-7.007c-0.142-0.101-0.229-0.166-0.249-0.181l0.644-0.846
			c0.01,0.007,0.317,0.237,0.875,0.6c3.212-1.01,6.629-1.543,10.158-1.543c1.041,0,2.096,0.057,3.156,0.147
			c1.525-0.248,3.094-0.382,4.7-0.399l0.005,0.483V3.921c0.28,0,0.563,0.032,0.849,0.083c-0.248-0.057-0.495-0.132-0.743-0.182
			C41.788,3.276,39.106,3,36.501,3c-8.982,0-17.285,3.296-23.379,9.282c-2.855,2.805-5.095,6.051-6.656,9.651
			c-1.576,3.63-2.373,7.418-2.37,11.259c0.005,8.27,2.486,15.015,7.374,20.05c4.829,4.973,11.891,8.154,20.99,9.453
			c1.414,0.201,2.864,0.304,4.308,0.305c0.001,0,0.001,0,0.003,0c8.187,0,16.568-3.304,22.996-9.062
			c6.442-5.775,10.138-13.314,10.138-20.687C69.904,25.626,67.035,18.678,61.606,13.156z M53.356,46.689
			c-2.959,13.208-17.79,17.198-34.583,10.692c-1.769-0.946-3.384-2.014-4.814-3.224c3.837,2.203,7.59,3.318,11.214,3.318
			c0.59,0,1.177-0.029,1.761-0.088c2.448-0.248,4.824-1.023,7.061-2.306c2.089-1.196,4.067-2.839,5.879-4.882
			c2.812-3.17,5.187-7.301,6.939-11.91c1.945-3.557,5.808-6.251,10.408-7.225c3.814-0.807,7.502-0.292,10.393,1.389
			C63.939,31.08,56.713,31.705,53.356,46.689z"/>
		<path d="M64.075,23.413c0.864-0.264,1.727-0.547,2.586-0.853c0.169-0.06,0.339-0.112,0.507-0.173l-0.363-0.999
			c-0.196,0.072-0.389,0.127-0.584,0.196c-0.755,0.267-1.507,0.526-2.251,0.756C64.031,22.69,64.067,23.048,64.075,23.413z"/>
		<path d="M39.521,25.359c0.352,0.051,0.703,0.102,1.056,0.146c1.588,0.199,3.179,0.336,4.771,0.397
			c0.708,0.028,1.414,0.041,2.123,0.041c0.419,0,0.838-0.019,1.257-0.028c0.357-0.008,0.714-0.009,1.071-0.024
			c0.096-0.004,0.191-0.008,0.287-0.012c-0.118-0.347-0.208-0.705-0.271-1.073c-0.333,0.014-0.655,0.013-0.983,0.021
			c-2.827,0.068-5.515-0.08-8.036-0.389c-0.354-0.044-0.708-0.088-1.057-0.138c-0.538-0.076-1.071-0.156-1.593-0.246
			c-0.127,0.354-0.338,0.684-0.616,0.979C38.192,25.154,38.856,25.263,39.521,25.359z"/>
		<path d="M20.147,18.962c0.553,0.295,1.139,0.593,1.744,0.891c-0.005-0.147-0.007-0.251-0.007-0.267v-0.689l0.667,0.175
			c0.102,0.027,0.219,0.056,0.342,0.086c-0.762-0.366-1.493-0.733-2.175-1.095c-0.323-0.172-0.63-0.341-0.935-0.511
			c-3.254-1.807-5.438-3.416-6.315-4.101c-0.276-0.216-0.438-0.35-0.447-0.358l-0.689,0.809c0.008,0.007,0.153,0.127,0.4,0.321
			c0.855,0.673,3.105,2.347,6.485,4.229C19.521,18.621,19.825,18.79,20.147,18.962z"/>
		<path d="M52.186,11.531c-1.111,0.131-2.197,0.211-3.255,0.245c-0.373,0.012-0.747,0.025-1.113,0.026
			c-1.532,0.006-2.999-0.079-4.391-0.23c-0.359-0.039-0.709-0.086-1.058-0.133c-1.88-0.256-3.608-0.625-5.158-1.048
			c-0.389-0.106-0.767-0.215-1.133-0.326c-0.444-0.136-0.877-0.273-1.287-0.413c-1.336-0.457-2.546-0.95-3.626-1.438
			c-0.416-0.188-0.814-0.375-1.188-0.56c-1.643-0.809-2.875-1.555-3.634-2.048c-0.558-0.363-0.865-0.593-0.875-0.6l-0.644,0.846
			c0.02,0.015,0.107,0.081,0.249,0.181c0.519,0.369,1.836,1.256,3.835,2.28c0.353,0.181,0.73,0.365,1.125,0.552
			c1.259,0.596,2.719,1.211,4.375,1.779c0.309,0.106,0.623,0.188,0.933,0.286c0.365,0.116,0.729,0.231,1.096,0.336
			c1.887,0.543,3.796,0.958,5.717,1.225c0.354,0.049,0.707,0.08,1.062,0.12c0.608,0.068,1.218,0.142,1.827,0.182
			c0.862,0.057,1.726,0.085,2.589,0.085c0.156,0,0.312-0.014,0.469-0.016c0.365-0.004,0.73-0.023,1.096-0.038
			c1.197-0.047,2.394-0.135,3.586-0.291c0.374-0.049,0.747-0.115,1.12-0.174c1.417-0.226,2.827-0.518,4.226-0.897
			c0.096-0.026,0.192-0.043,0.288-0.07l-0.285-1.024c-0.358,0.1-0.71,0.182-1.064,0.27c-1.267,0.315-2.51,0.561-3.724,0.741
			C52.953,11.437,52.568,11.487,52.186,11.531z"/>
		<path d="M36.661,39.346c-2.993-0.525-5.919-1.267-8.799-2.234c0.005,0.113,0.017,0.226,0.017,0.34
			c0,0.263-0.016,0.522-0.042,0.778c2.819,0.931,5.684,1.644,8.611,2.159c0.349,0.062,0.697,0.127,1.048,0.183
			c1.864,0.295,3.757,0.506,5.679,0.641c0.477,0.033,0.955,0.061,1.436,0.084c0.193,0.01,0.384,0.026,0.578,0.034l0.027-0.697
			l0.015-0.365c-0.349-0.014-0.692-0.042-1.04-0.062c-2.199-0.122-4.359-0.343-6.481-0.677
			C37.357,39.474,37.01,39.407,36.661,39.346z"/>
		<path d="M15.201,32.482c0.252-0.272,0.526-0.525,0.817-0.757c-0.199-0.115-0.397-0.225-0.596-0.342
			c-0.324-0.191-0.648-0.387-0.972-0.584c-1.963-1.196-3.922-2.504-5.884-3.938c-0.066-0.049-0.133-0.093-0.199-0.142l-0.63,0.857
			c0.285,0.21,0.57,0.405,0.855,0.609c1.884,1.353,3.768,2.604,5.655,3.74C14.565,32.115,14.883,32.297,15.201,32.482z"/>
		<path d="M50.766,23.579c0,3.379,2.749,6.13,6.128,6.13c3.38,0,6.13-2.751,6.13-6.13c0-3.38-2.75-6.13-6.13-6.13
			c-0.42,0-0.842,0.043-1.251,0.128C52.816,18.162,50.766,20.686,50.766,23.579z"/>
		<path d="M54.816,16.72c-2.266,0.688-4.023,2.439-4.745,4.639c-0.231,0.705-0.37,1.448-0.37,2.22c0,0.419,0.044,0.828,0.113,1.228
			c0.063,0.368,0.153,0.726,0.271,1.073c0.773,2.283,2.663,4.049,5.017,4.656c0.574,0.148,1.172,0.235,1.791,0.235
			c1.421,0,2.743-0.42,3.86-1.134c1.999-1.279,3.33-3.513,3.33-6.058c0-0.056-0.007-0.11-0.009-0.166
			c-0.008-0.365-0.044-0.723-0.105-1.073c-0.589-3.377-3.533-5.955-7.076-5.955c-0.346,0-0.689,0.034-1.029,0.083
			c-0.146,0.021-0.292,0.037-0.436,0.067C55.217,16.58,55.021,16.658,54.816,16.72z M56.894,17.449c3.38,0,6.13,2.75,6.13,6.13
			c0,3.379-2.75,6.13-6.13,6.13c-3.379,0-6.128-2.751-6.128-6.13c0-2.893,2.051-5.417,4.877-6.002
			C56.052,17.492,56.474,17.449,56.894,17.449z"/>
		<path d="M27.348,37.451c0-3.743-3.045-6.788-6.787-6.788c-0.466,0-0.932,0.047-1.384,0.141c-3.131,0.648-5.403,3.444-5.403,6.647
			c0,3.742,3.045,6.787,6.787,6.787C24.303,44.238,27.348,41.193,27.348,37.451z M14.413,37.451c0-2.901,2.058-5.434,4.894-6.021
			c0.41-0.084,0.832-0.128,1.253-0.128c3.39,0,6.148,2.758,6.148,6.148c0,3.389-2.759,6.147-6.148,6.147S14.413,40.84,14.413,37.451
			z"/>
		<path d="M26.021,42.307c0.384-0.432,0.722-0.905,0.997-1.419c0.432-0.809,0.717-1.706,0.818-2.658
			c0.027-0.256,0.042-0.516,0.042-0.778c0-0.114-0.012-0.227-0.017-0.34c-0.042-0.922-0.251-1.801-0.606-2.604
			c-0.238-0.54-0.542-1.043-0.897-1.505c-1.339-1.742-3.437-2.871-5.798-2.871c-0.502,0-1.004,0.051-1.491,0.152
			c-1.145,0.237-2.179,0.745-3.051,1.441c-0.292,0.232-0.565,0.485-0.817,0.757c-0.537,0.581-0.981,1.245-1.309,1.97
			c-0.417,0.923-0.65,1.939-0.65,2.999c0,0.922,0.179,1.802,0.491,2.615c0.192,0.498,0.432,0.972,0.722,1.41
			c1.22,1.845,3.252,3.101,5.582,3.267c0.173,0.013,0.347,0.026,0.523,0.026C22.732,44.77,24.68,43.813,26.021,42.307z
			 M13.773,37.451c0-3.203,2.272-5.999,5.403-6.647c0.452-0.094,0.918-0.141,1.384-0.141c3.742,0,6.787,3.044,6.787,6.788
			c0,3.742-3.045,6.787-6.787,6.787C16.819,44.238,13.773,41.193,13.773,37.451z"/>
		<path d="M26.709,37.451c0-3.391-2.759-6.148-6.148-6.148c-0.422,0-0.844,0.043-1.253,0.128c-2.836,0.587-4.894,3.119-4.894,6.021
			c0,3.389,2.758,6.147,6.147,6.147S26.709,40.84,26.709,37.451z M14.457,37.451c0-2.945,2.084-5.402,4.859-5.977
			c0.401-0.084,0.818-0.127,1.244-0.127c3.372,0,6.104,2.733,6.104,6.104s-2.732,6.104-6.104,6.104
			C17.189,43.555,14.457,40.822,14.457,37.451z"/>
		<path d="M37.742,17.345l0.405-0.101c-0.175,0.028-0.312,0.049-0.409,0.059C37.739,17.317,37.74,17.331,37.742,17.345z"/>
		<path d="M23.603,25.675l0.245,0.406l0.431-0.197c0.057-0.025,1.397-0.642,2.253-1.359c0.555-0.464,0.985-0.916,1.238-1.198
			c0.199,0.057,0.48,0.102,0.807,0.119c0.069,0.003,0.125,0.014,0.2,0.014c0.014,0,0.028,0,0.041,0
			c-0.417,0.944-0.565,1.764-0.66,2.296c-0.033,0.187-0.062,0.349-0.089,0.434l-1.042,3.305l1.246-1.084l0.177-0.154
			c0.022-0.019,2.248-1.93,4.978-1.93c0.154,0,0.308,0.006,0.46,0.019c0.128,0.01,0.258,0.015,0.387,0.015
			c1.304,0,2.511-0.534,3.255-1.326c0.277-0.295,0.489-0.625,0.616-0.979c0.056-0.154,0.104-0.311,0.125-0.473
			c0.227-1.723-0.16-2.912-1.182-3.636c-0.541-0.383-1.07-0.625-1.441-0.766c0.112-0.313,0.329-0.756,0.736-1.163
			c0.272-0.272,0.618-0.437,0.838-0.522c-0.022-0.19-0.035-0.374-0.039-0.55c-0.238,0.079-0.765,0.287-1.175,0.697
			c-0.878,0.878-1.001,1.888-1.001,1.888s0.868,0.208,1.774,0.85c0.907,0.642,1.152,1.699,0.963,3.133
			c-0.179,1.348-1.945,2.454-3.814,2.303c-3.19-0.258-5.83,2.041-5.83,2.041s0,0,0.474-1.506c0.15-0.477,0.19-1.795,1.062-3.339
			c0,0,0.144-0.084-0.859-0.084c-0.754,0-1.17-0.227-1.17-0.227s-0.552,0.693-1.415,1.416c-0.812,0.679-2.134,1.284-2.134,1.284
			s-0.495-0.818-1.113-2.586c-0.529-1.51-0.529-3.228-0.529-3.228s1.743,0.458,2.399,0.457c1.527-0.003,2.641-0.4,2.641-0.4
			S26.153,18,25.397,17.585c-0.754-0.416-2.133-0.509-2.133-0.509s0.435-1.001,1.208-1.529c0.631-0.431,2.481-1.051,4.493-0.548
			c1.737,0.434,3.097,2.643,3.097,2.643s1.304-2.314,3-2.02c1.033,0.18,1.832,0.875,2.122,1.158c0.003-0.236,0.019-0.46,0.05-0.667
			c-0.447-0.369-1.183-0.859-2.081-1.015c-0.129-0.022-0.261-0.034-0.391-0.034c-0.49,0-0.937,0.162-1.334,0.395
			c-0.584,0.343-1.058,0.846-1.375,1.253c-0.099-0.127-0.217-0.268-0.344-0.413c-0.615-0.706-1.536-1.546-2.616-1.816
			c-0.54-0.135-1.104-0.204-1.675-0.204c-1.405,0-2.643,0.416-3.247,0.828c-0.891,0.609-1.375,1.71-1.396,1.757l-0.3,0.689
			l0.751,0.053c0.351,0.023,1.377,0.15,1.913,0.445c0.336,0.185,0.895,0.755,1.365,1.288c-0.434,0.087-1.023,0.17-1.695,0.171
			c-0.362,0-1.259-0.191-1.919-0.353c-0.123-0.03-0.241-0.059-0.342-0.086l-0.667-0.175v0.689c0,0.016,0.001,0.119,0.007,0.267
			c0.021,0.552,0.116,1.892,0.551,3.137C23.072,24.789,23.581,25.64,23.603,25.675z"/>
		<path d="M37.31,16.906c0,0-0.047,0.012-0.127,0.038c0.003,0.176,0.017,0.36,0.039,0.55c0.052,0.449,0.153,0.93,0.331,1.444
			c0.038,0.11,0.141,0.179,0.252,0.179c0.027,0,0.058-0.005,0.087-0.015c0.137-0.048,0.21-0.199,0.163-0.338
			c-0.177-0.51-0.27-0.983-0.312-1.419c-0.001-0.014-0.002-0.028-0.004-0.042c-0.289,0.026-0.283-0.071-0.231-0.556
			c0.014-0.136,0.091-0.328,0.25-0.518c0.064-0.451,0.19-0.817,0.342-1.069c0.048-0.079,0.104-0.127,0.156-0.188
			c-0.652,0.161-0.775,0.335-0.604-0.092c-0.001,0.001-0.002,0.003-0.003,0.004c-0.185,0.303-0.335,0.722-0.413,1.229
			c-0.031,0.207-0.047,0.431-0.05,0.667C37.261,16.853,37.31,16.906,37.31,16.906z"/>
		<path d="M38.255,14.972c0.415-0.102,1.042-0.193,1.936-0.104c0.868,0.086,1.223-0.434,1.223-0.837c0-0.403-0.326-0.714-0.73-0.731
			c-1.867-0.074-2.843,1.117-3.005,1.511c-0.013,0.031-0.016,0.043-0.026,0.069C37.48,15.307,37.603,15.133,38.255,14.972z"/>
		<path d="M37.738,17.303c0.097-0.009,0.234-0.031,0.409-0.059c0.296-0.047,0.701-0.106,1.295-0.133
			c0.874-0.039,1.224-0.434,1.224-0.837c0-0.402-0.326-0.713-0.729-0.73c-1.232-0.05-1.871,0.315-2.18,0.685
			c-0.159,0.19-0.236,0.382-0.25,0.518C37.455,17.231,37.449,17.329,37.738,17.303z"/>
	</g>
</g>
</svg>
